<?xml version="1.0" standalone="no"?>
<!DOCTYPE svg PUBLIC "-//W3C//DTD SVG 1.1//EN" "http://www.w3.org/Graphics/SVG/1.1/DTD/svg11.dtd" >
<svg xmlns="http://www.w3.org/2000/svg" xmlns:xlink="http://www.w3.org/1999/xlink" version="1.1">
<metadata></metadata>
<defs>
<font id="anonymousregular" horiz-adv-x="1366" >
<font-face units-per-em="2048" ascent="1638" descent="-410" />
<missing-glyph horiz-adv-x="500" />
<glyph horiz-adv-x="0" />
<glyph unicode="&#xd;" horiz-adv-x="1024" />
<glyph unicode=" " />
<glyph unicode="!" d="M456 0v222h224v-222h-224zM460 1586h225l-63 -1137h-99z" />
<glyph unicode="&#x22;" d="M231 1592h225l-52 -568h-121zM689 1592h225l-52 -568h-121z" />
<glyph unicode="#" d="M0 730v136h276v316h-276v134h276v276h135v-276h317v276h136v-276h275v-134h-275v-316h275v-136h-275v-276h-136v276h-317v-276h-135v276h-276zM411 866h317v316h-317v-316z" />
<glyph unicode="$" d="M-2 417l160 41q61 -279 328 -328v641q-210 76 -298 149q-136 112 -136 294q0 155 112 266q121 121 322 138v203h171v-209q182 -30 298 -148t132 -278l-173 -30q-34 251 -257 304v-574q209 -76 304 -158q137 -121 137 -313q0 -171 -124.5 -295t-316.5 -142v-207h-171v209 q-205 28 -335 152q-121 115 -153 285zM225 1216q0 -95 77 -162q57 -53 184 -103v518q-119 -15 -190 -88.5t-71 -164.5zM657 125q141 19 211 115q48 71 48 160q0 195 -259 306v-581z" />
<glyph unicode="%" d="M-28 1313q0 128 90.5 218.5t218.5 90.5q127 0 217 -90.5t90 -218.5q0 -127 -90 -217.5t-217 -90.5q-128 0 -218.5 90.5t-90.5 217.5zM4 39l1022 1592l113 -76l-1022 -1590zM97 1313q0 -76 54 -130.5t130 -54.5t129.5 54.5t53.5 130.5t-53.5 130t-129.5 54t-130 -54 t-54 -130zM555 279q0 127 90 217t219 90q128 0 218.5 -90t90.5 -217q0 -128 -90.5 -218.5t-218.5 -90.5t-218.5 90.5t-90.5 218.5zM680 279q0 -76 54 -130t130 -54t130 54t54 130t-54 130.5t-130 54.5t-130 -54t-54 -131z" />
<glyph unicode="&#x26;" d="M-32 408q0 259 218 424q-162 199 -162 384q0 188 110 298t292 110q190 0 298 -110q97 -99 97 -246q0 -168 -132 -285q-34 -30 -274 -181q102 -108 440 -417q112 158 154 347l160 -41q-41 -210 -197 -414l197 -180l-115 -132q-82 82 -194 188q-199 -181 -437 -181 q-195 0 -328 136q-127 128 -127 300zM151 408q0 -115 76 -193.5t196 -78.5q177 0 322 128q-171 164 -455 447q-140 -125 -139 -303zM197 1216q0 -149 116 -298q190 114 231 149q104 90 104 205q0 82 -54 139q-61 63 -168 64q-104 0 -166.5 -75.5t-62.5 -183.5z" />
<glyph unicode="'" d="M462 1594h225l-50 -568h-123z" />
<glyph unicode="(" d="M229 693q0 339 147 644q143 292 397 501l89 -110q-229 -188 -357 -455q-132 -274 -133 -580q0 -309 133 -583q128 -266 357 -454l-89 -110q-253 209 -397 502q-147 303 -147 645z" />
<glyph unicode=")" d="M279 -344q229 188 358 452q134 276 134 583t-134 582q-128 264 -358 453l90 110q255 -207 396 -501q147 -303 147 -644t-147 -644q-141 -294 -396 -501z" />
<glyph unicode="*" d="M43 797l417 227l-417 225l67 118l406 -250l-15 475h136l-13 -475l404 250l69 -118l-419 -225l419 -227l-69 -117l-404 249l13 -475h-136l15 475l-406 -249z" />
<glyph unicode="+" d="M0 728v136h501v501h136v-501h501v-136h-501v-501h-136v501h-501z" />
<glyph unicode="," d="M292 -233l229 684h226l-336 -684h-119z" />
<glyph unicode="-" d="M227 730v136h683v-136h-683z" />
<glyph unicode="." d="M456 -7v223h224v-223h-224z" />
<glyph unicode="/" d="M162 -233l936 1886l121 -61l-936 -1886z" />
<glyph unicode="0" d="M-54 1551l162 -171q166 242 464 242q272 0 435 -203q177 -218 177 -624q0 -274 -86 -467l99 -106v-196l-167 179q-166 -235 -458 -235q-270 0 -434 203q-177 218 -177 622q0 268 80 460l-93 100zM130 795q0 -317 115.5 -496.5t326.5 -179.5q225 0 342 209l-743 789 q-41 -145 -41 -322zM225 1255l745 -791q43 150 43 331q0 318 -114.5 498t-326.5 180q-229 0 -347 -218z" />
<glyph unicode="1" d="M225 0v147h257v1126q-69 -138 -257 -137v173q257 0 257 283h170v-1445h257v-147h-684z" />
<glyph unicode="2" d="M7 1046q0 268 141.5 422t406.5 154q210 0 357 -114q162 -123 162 -328q0 -156 -87 -284q-43 -65 -203 -228q-50 -52 -153 -158q-171 -175 -367 -363h656v298h149v-445h-1026v147l620 631q119 121 160 181q78 114 78 223q0 132 -110 216q-101 74 -236 75q-188 0 -291 -121 q-97 -114 -96 -306h-161z" />
<glyph unicode="3" d="M32 462l162 26q19 -184 143 -283q110 -86 268 -86q147 0 250 101q97 95 96 218q0 209 -163 271q-80 30 -296 30v171q244 0 353 99q76 71 77 173q0 125 -82 205q-88 86 -235 86q-175 0 -277 -95q-110 -101 -110 -287h-162q0 257 160 398q147 132 389 133q231 0 365 -133 q125 -121 125 -309q0 -149 -101 -247q-95 -89 -214 -90q121 0 229 -119q116 -127 116 -285q0 -188 -140 -324q-149 -145 -380 -145q-218 0 -367 106q-181 128 -206 386z" />
<glyph unicode="4" d="M0 464v149l665 979h216v-979h257v-149h-257v-317h257v-147h-684v147h255v317h-709zM179 613h530v778z" />
<glyph unicode="5" d="M19 469l162 26q19 -184 136 -288q106 -95 258 -95q173 0 292.5 122t119.5 297q0 186 -108 304t-294 118q-236 0 -369 -154h-149v793h1004v-147h-855v-492q145 140 369 140q261 0 418 -151t157 -410q0 -227 -164 -394q-171 -173 -421 -173q-212 0 -359 113 q-171 134 -197 391z" />
<glyph unicode="6" d="M-28 795q0 402 192 624q173 203 449 203q238 0 396 -164l-117 -104q-110 119 -279 119q-209 0 -336 -159q-134 -171 -134 -482q32 104 153 192q134 97 289 97q266 0 424 -175q145 -162 145 -404q0 -248 -152 -404q-164 -168 -447 -168q-266 0 -419 203q-164 214 -164 622 zM169 559q0 -179 88 -298q104 -141 298 -142q212 0 328 127q102 114 102 296q0 179 -95 298q-110 134 -305 134q-194 0 -309 -125q-106 -115 -107 -290z" />
<glyph unicode="7" d="M71 1136v456h1054v-147q-259 -264 -364 -602q-102 -322 -102 -843h-175q0 514 127 873q115 331 352 572h-743v-309h-149z" />
<glyph unicode="8" d="M-11 449q0 158 115 281q106 114 229 113q-110 0 -198 108t-88 231q0 197 146 318.5t377 121.5t377 -121t146 -319q0 -123 -88.5 -231t-198.5 -108q121 0 229 -113q116 -123 116 -281q0 -210 -153 -341q-162 -140 -445 -140q-279 0 -428 140q-136 127 -136 341zM162 447 q0 -145 99 -237q106 -95 292 -95q190 0 307 94.5t117 237.5q0 179 -139 260q-104 60 -268 60t-268 -60q-140 -82 -140 -260zM220 1184q0 -249 350 -270q350 21 350 270q0 132 -93 211.5t-257 79.5t-257 -79.5t-93 -211.5z" />
<glyph unicode="9" d="M-13 1050q0 248 153 404q162 168 445 168q268 0 420 -203q164 -214 164 -624q0 -400 -192 -622q-173 -203 -448 -203q-238 0 -399 164l119 104q110 -119 280 -119q209 0 335 158q134 171 134 483q-32 -104 -153 -192q-134 -97 -288 -97q-268 0 -425 175 q-145 162 -145 404zM156 1050q0 -179 95 -298q110 -134 306 -134q194 0 309 125q106 115 106 290q0 179 -88 298q-104 141 -299 142q-212 0 -326 -127q-102 -114 -103 -296z" />
<glyph unicode=":" d="M456 -7v223h224v-223h-224zM456 910v222h224v-222h-224z" />
<glyph unicode=";" d="M292 -235l229 684h226l-336 -684h-119zM456 910v222h224v-222h-224z" />
<glyph unicode="&#x3c;" d="M244 795l624 626l96 -97l-528 -529l528 -527l-96 -97z" />
<glyph unicode="=" d="M0 456v136h1138v-136h-1138zM0 1004v134h1138v-134h-1138z" />
<glyph unicode="&#x3e;" d="M175 268l529 527l-529 529l95 97l626 -626l-626 -624z" />
<glyph unicode="?" d="M205 1179q28 233 166 346q117 97 296 97q210 0 327.5 -108t117.5 -289q0 -155 -123 -289q-114 -108 -229 -215q-123 -130 -123 -276h-179q0 166 125 316q115 114 231 229q125 127 124 239q0 244 -271 244q-121 0 -202 -77q-91 -89 -98 -258zM456 0v222h224v-222h-224z " />
<glyph unicode="@" d="M-43 797q0 404 179 624q162 201 434 201t435 -201q177 -220 177 -624q0 -235 -72 -359q-61 -102 -151 -103q-60 0 -104.5 48.5t-44.5 122.5v82q-84 -233 -289 -232q-158 0 -244 130q-73 112 -72 285q0 184 93 311q108 143 298 143q102 0 214 -87v67h125v-699 q0 -56 48 -55q43 0 73 72q37 91 37 274q0 354 -136 553t-387 199t-387 -199t-136 -553q0 -352 135.5 -551t387.5 -199q201 0 331 132l65 -47q-158 -160 -396 -160q-272 0 -434 201q-179 220 -179 624zM330 771q0 -138 52 -218t139 -80q145 0 222 115q67 103 67 267v158 q-108 114 -214 113q-140 0 -211 -121q-56 -95 -55 -234z" />
<glyph unicode="A" d="M-74 0l532 1592h227l531 -1592h-181l-149 456h-631l-147 -456h-182zM303 603h535l-266 819z" />
<glyph unicode="B" d="M60 0v1594h435q248 0 376 -60q209 -97 209 -355q0 -249 -246 -339q302 -95 302 -384q0 -456 -613 -456h-463zM231 149h292q441 0 441 307t-441 307h-292v-614zM231 910h264q184 0 276 41q138 64 138 228q0 166 -144 227q-91 41 -270 41h-264v-537z" />
<glyph unicode="C" d="M-22 797q0 404 177 624q162 201 433 201q294 0 399 -214v186h149v-525h-149q0 186 -123 299q-115 106 -276 107q-210 0 -325.5 -180t-115.5 -498t116 -495q115 -182 325 -183q303 0 402 361l159 -61q-69 -222 -220 -337q-143 -110 -341 -110q-272 0 -433 201 q-177 220 -177 624z" />
<glyph unicode="D" d="M60 0v1594h519q266 0 430 -188q183 -211 183 -609t-183 -609q-164 -188 -430 -188h-519zM229 149h350q207 0 324 168.5t117 479.5t-117 480.5t-324 169.5h-350v-1298z" />
<glyph unicode="E" d="M56 0v1594h1024v-147h-855v-559h630v-149h-630v-590h855v-149h-1024z" />
<glyph unicode="F" d="M56 0v1594h1024v-147h-855v-559h630v-149h-630v-739h-169z" />
<glyph unicode="G" d="M-22 797q0 404 177 624q162 201 433 201q294 0 399 -214v186h149v-525h-149q0 186 -123 299q-115 106 -276 107q-210 0 -325.5 -180t-115.5 -498t116 -495q115 -182 325 -183q192 0 304 149t132 417h-354v147h531v-35q0 -404 -177 -624q-164 -201 -436 -201t-433 201 q-177 220 -177 624z" />
<glyph unicode="H" d="M56 0v1594h169v-706h684v706h171v-1594h-171v739h-684v-739h-169z" />
<glyph unicode="I" d="M227 0v149h257v1298h-257v147h683v-147h-257v-1298h257v-149h-683z" />
<glyph unicode="J" d="M-6 419l161 61q99 -361 400 -361q203 0 285 149q70 126 70 400v8v918h172v-918q0 -704 -527 -704q-195 0 -339 110q-153 115 -222 337z" />
<glyph unicode="K" d="M56 2v1594h169v-775l685 775h222l-627 -695l627 -899h-207l-530 780l-170 -188v-592h-169z" />
<glyph unicode="L" d="M56 0v1594h169v-1445h855v-149h-1024z" />
<glyph unicode="M" d="M56 0v1594h221l291 -833l290 833h222v-1594h-171v1331l-282 -825h-119l-283 825v-1331h-169z" />
<glyph unicode="N" d="M56 0v1594h238l615 -1287v1287h171v-1594h-211l-644 1348v-1348h-169z" />
<glyph unicode="O" d="M-43 797q0 404 179 624q162 201 434 201t435 -201q177 -220 177 -624t-177 -624q-164 -201 -435 -201q-272 0 -434 201q-179 220 -179 624zM128 797q0 -318 114 -495q117 -182 328 -183q212 0 327 183q114 177 114 495t-114.5 498t-326.5 180q-210 0 -326 -180t-116 -498 z" />
<glyph unicode="P" d="M48 0v1594h466q611 0 611 -456q0 -454 -611 -455h-294v-683h-172zM220 830h294q439 1 439 308q0 309 -439 309h-294v-617z" />
<glyph unicode="Q" horiz-adv-x="1364" d="M-43 797q0 404 179 624q162 201 434 201t434 -201q178 -220 178 -624q0 -371 -152 -588q-140 -199 -378 -231q19 -141 102 -211q93 -74 281 -74q48 0 103 4v-146q-59 -5 -113 -5h-18q-493 0 -543 435q-229 41 -362 239q-145 216 -145 577zM128 797q0 -318 115.5 -497 t326.5 -179q210 0 325.5 179t115.5 497t-115.5 498t-325.5 180t-326 -180t-116 -498z" />
<glyph unicode="R" d="M48 0v1594h466q611 0 611 -456q0 -398 -457 -447l483 -691h-220l-466 683h-245v-683h-172zM220 830h294q439 1 439 308q0 309 -439 309h-294v-617z" />
<glyph unicode="S" d="M32 0v482h147q0 -136 110 -244q121 -119 309 -119q177 0 260 106q58 74 58 175q0 184 -223 291q-209 86 -416 169q-225 123 -225 354q0 168 127 283q138 125 365 125q145 0 260 -86q108 -82 108 -169v227h149v-455h-149q0 136 -109.5 236t-258.5 100q-143 0 -231 -77.5 t-88 -181.5q0 -155 227 -252q210 -88 421 -175q225 -132 225 -374q0 -186 -142 -314.5t-358 -128.5q-184 0 -311 99q-102 82 -108 160v-231h-147z" />
<glyph unicode="T" d="M0 1056v538h1139v-538h-149v391h-335v-1298h255v-149h-683v149h257v1298h-337v-391h-147z" />
<glyph unicode="U" d="M45 676v918h169v-918q0 -279 73 -408q82 -149 283 -149q203 0 285 149q70 126 70 400v8v918h172v-918q0 -704 -527 -704q-525 0 -525 704z" />
<glyph unicode="V" d="M-74 1592h180l464 -1423l463 1423h183l-533 -1592h-227z" />
<glyph unicode="W" d="M-76 1592h180l226 -1309l160 845h165l160 -845l226 1309h180l-288 -1592h-196l-164 778l-165 -778h-196z" />
<glyph unicode="X" d="M-22 0v149h158l341 652l-337 646h-133v147h455v-147h-132l243 -490l246 490h-132v147h454v-147h-134l-337 -646l341 -652h158v-149h-454v149h106l-248 495l-247 -495h106v-149h-454z" />
<glyph unicode="Y" d="M-22 1447v149h454v-149h-136l276 -578h3l274 578h-134v149h452v-149h-130l-378 -758v-540h255v-147h-683v147h257v540l-378 758h-132z" />
<glyph unicode="Z" d="M63 0v149l797 1298h-648v-391h-149v538h996v-147l-795 -1298h676v391h149v-540h-1026z" />
<glyph unicode="[" d="M456 -454v2277h454v-136h-320v-2005h320v-136h-454z" />
<glyph unicode="\" d="M162 1592l121 61l936 -1886l-121 -61z" />
<glyph unicode="]" d="M227 -318h320v2005h-320v136h456v-2277h-456v136z" />
<glyph unicode="^" d="M229 681l229 913h225l231 -913h-119l-223 607l-224 -607h-119z" />
<glyph unicode="_" d="M0 0v136h1367v-136h-1367z" />
<glyph unicode="`" d="M270 1685l80 132l495 -350l-48 -80z" />
<glyph unicode="a" d="M155 983q160 184 424 184q181 0 335 -121v93h171v-1139h-171v469q-32 -181 -143 -326q-130 -175 -294 -175q-235 0 -362 173q-113 154 -113 395q0 272 153 447zM173 540q0 -169 65 -279q80 -132 239 -133q192 0 325 241q112 205 112 415v89q-147 156 -335 157 q-197 0 -307 -151q-99 -134 -99 -339z" />
<glyph unicode="b" d="M61 0v1594h172v-548q155 121 335 121q277 0 434 -182q143 -164 143 -417t-143 -417q-156 -182 -434 -183q-181 0 -335 121v-89h-172zM233 263q147 -156 335 -157q207 0 315 147q91 125 91 315t-91 315q-108 147 -315 147q-188 0 -335 -157v-610z" />
<glyph unicode="c" d="M2 568q0 253 141 417q156 182 436 182q127 0 231 -65t126 -149v186h149v-454h-149q0 147 -117 251q-110 93 -240 94q-209 0 -316 -147q-91 -125 -92 -315q0 -186 103 -315q117 -147 327 -147q127 0 229.5 53t148.5 137l118 -82q-155 -246 -496 -246q-281 0 -446 183 q-153 166 -153 417z" />
<glyph unicode="d" d="M-2 568q0 253 142 417q156 182 435 182q181 0 335 -121v401h-223v147h395v-1594h-172v89q-155 -121 -335 -121q-279 0 -435 183q-141 164 -142 417zM168 568q0 -190 91 -315q108 -147 316 -147q186 1 335 157v610q-149 156 -335 157q-209 0 -316 -147q-91 -125 -91 -315z " />
<glyph unicode="e" d="M-4 568q0 253 144 417q156 182 433 182q305 0 457 -210q121 -171 121 -447h-980q17 -169 118 -279q115 -125 307 -125q127 0 229 53t149 137l117 -82q-155 -246 -495 -246q-279 0 -445 183q-155 166 -155 417zM173 659h799q-54 371 -399 371q-181 0 -286 -114 q-91 -97 -114 -257z" />
<glyph unicode="f" d="M231 0v149h257v841h-257v149h257q0 467 489 468q74 0 161 -13v-138q-71 9 -131 9q-195 0 -277 -89q-73 -78 -73 -237h481v-149h-481v-841h257v-149h-683z" />
<glyph unicode="g" d="M4 568q0 253 141 417q156 182 434 182q181 0 337 -121v93h169v-1104q0 -201 -124 -333q-143 -153 -417 -153q-341 0 -496 246l118 80q47 -84 149 -136t229 -52q203 0 298 119q74 89 74 229v84q-155 -121 -337 -121q-279 0 -434 166q-141 155 -141 404zM173 568 q0 -186 91 -300q106 -134 315 -134q188 0 337 158v581q-149 156 -337 157q-207 0 -315 -147q-91 -125 -91 -315z" />
<glyph unicode="h" d="M52 0v1594h170v-741q119 314 435 314h2q419 0 419 -465v-702h-171v702q0 303 -248 303q-199 0 -322 -149q-115 -140 -115 -346v-510h-170z" />
<glyph unicode="i" d="M227 0v149h257v841h-257v149h426v-990h257v-149h-683zM456 1367v227h225v-227h-225z" />
<glyph unicode="j" d="M6 -201l126 76q89 -188 292 -188q162 0 229 97q58 82 58 251v955h-255v149h427v-1104q0 -225 -116 -352q-119 -134 -343 -134q-298 0 -418 250zM685 1367v227h225v-227h-225z" />
<glyph unicode="k" d="M60 0v1594h169v-1069l646 614h240l-569 -525l590 -614h-239l-463 510l-205 -188v-322h-169z" />
<glyph unicode="l" d="M229 0v149h255v1298h-255v147h426v-1445h257v-149h-683z" />
<glyph unicode="m" d="M4 0v1139h169v-165q54 193 220 193h2q169 0 227 -169q84 169 236 169q143 0 211.5 -91t68.5 -294v-782h-170v782q0 223 -130 223q-186 0 -186 -361v-644h-170v782q0 223 -132 223q-89 0 -130 -76q-45 -84 -45 -285h-2v-644h-169z" />
<glyph unicode="n" d="M61 0v1139h172v-286q119 314 433 314h2q421 0 421 -465v-702h-171v702q0 303 -250 303q-199 0 -320 -149q-115 -140 -115 -346v-510h-172z" />
<glyph unicode="o" d="M-28 566q0 251 155 419q165 180 442 180h3q281 0 446 -180q153 -168 153 -419q0 -249 -153 -417q-166 -181 -446 -181q-279 0 -445 181q-155 168 -155 417zM143 566q0 -186 103 -315q117 -147 326 -147q210 0 327 147q103 129 103 315q0 188 -103 315q-117 147 -327 147 q-209 0 -326 -147q-102 -127 -103 -315z" />
<glyph unicode="p" horiz-adv-x="1364" d="M54 -454v1592h171v-92q155 119 335 119q279 0 436 -180q142 -164 142 -417q0 -255 -142 -419q-156 -181 -436 -181q-181 0 -335 121v-543h-171zM225 263q149 -156 335 -157q209 0 317 147q91 123 91 315q0 190 -91 315q-108 147 -317 147q-186 0 -335 -157v-610z" />
<glyph unicode="q" horiz-adv-x="1364" d="M4 568q0 253 141 417q155 180 431 180h3q181 0 335 -119v92h171v-1592h-171v543q-155 -121 -335 -121q-277 0 -434 181q-141 164 -141 419zM173 568q0 -192 91 -315q108 -147 315 -147q188 1 335 157v610q-147 156 -335 157q-207 0 -315 -147q-91 -125 -91 -315z" />
<glyph unicode="r" d="M6 0v147h255v843h-255v149h426v-286q117 314 434 314h2q172 0 271 -41l-57 -156q-93 45 -214 45q-201 0 -324 -157q-112 -143 -112 -348v-363h257v-147h-683z" />
<glyph unicode="s" d="M-15 134l76 145q244 -175 501 -175q376 0 376 207q0 121 -236 158q-341 47 -436 75q-236 76 -236 290q0 136 138 229q149 102 394 102q292 0 484 -134l-67 -130q-153 127 -417 127q-158 0 -257 -51q-104 -52 -104 -143q0 -119 235 -158q320 -45 437 -75q235 -75 235 -284 q0 -155 -144 -250q-149 -99 -402 -99q-158 0 -324 51q-155 47 -253 115z" />
<glyph unicode="t" d="M6 990v148h255v456h171v-456h480v-148h-480v-571q0 -121 67 -203q76 -97 212 -97q130 0 207 90q65 78 71 193l167 -39q-19 -169 -130 -277q-121 -115 -315 -116q-210 0 -335 136q-115 125 -115 313v571h-255z" />
<glyph unicode="u" d="M60 438v701h171v-701q0 -305 249 -306q199 0 321 149q115 141 115 348v510h171v-1139h-171v287q-119 -315 -436 -315q-421 0 -420 466z" />
<glyph unicode="v" d="M0 1138h199l380 -998l359 998h200l-447 -1138h-226z" />
<glyph unicode="w" d="M6 1139h176l148 -912l160 903h165l160 -903l148 912h176l-206 -1137h-196l-164 834l-165 -834h-196z" />
<glyph unicode="x" d="M-24 0v147h179l312 430l-299 413h-164v148h469v-148h-108l208 -323l211 323h-114v148h468v-148h-157l-301 -413l312 -430h175v-147h-469v147h99l-224 343l-223 -343h93v-147h-467z" />
<glyph unicode="y" d="M-9 1138h199l383 -983l356 983h199l-543 -1397q-30 -73 -107 -126q-101 -69 -240 -69q-104 0 -227 41l37 171q134 -37 203 -37q114 0 151 91l65 156z" />
<glyph unicode="z" d="M54 0v147l769 843h-620v-305h-149v453h998v-148l-769 -843h648v304h149v-451h-1026z" />
<glyph unicode="{" d="M231 614v138q227 0 227 207v521q0 145 93 243t248 98h113v-136h-113q-207 0 -207 -205v-521q0 -89 -56 -170q-61 -84 -154 -106q89 -19 152 -104q58 -80 58 -169v-522q0 -207 207 -206h113v-136h-113q-155 0 -250 100q-91 95 -91 242v522q0 205 -227 204z" />
<glyph unicode="|" d="M486 -229v2050h171v-2050h-171z" />
<glyph unicode="}" d="M227 -318h114q207 0 206 206v522q0 89 60.5 172t152.5 101q-93 22 -153 104t-60 172v521q0 205 -206 205h-114v136h114q155 0 248.5 -98t93.5 -243v-521q0 -207 227 -207v-138q-227 0 -227 -204v-522q0 -147 -93 -242q-95 -101 -249 -100h-114v136z" />
<glyph unicode="~" d="M95 1549q112 190 300 190q117 0 208 -86q60 -56 131 -56q123 0 202 136l97 -57q-112 -192 -299 -192q-117 0 -209 86q-58 56 -130 55q-123 0 -201 -134z" />
<glyph unicode="&#xa0;" />
<glyph unicode="&#xa1;" horiz-adv-x="1362" d="M685 0l62 1136h98l64 -1136h-224zM691 1363v221h223v-221h-223z" />
<glyph unicode="&#xa2;" d="M11 795q0 222 121 382q130 171 358 208v205h171v-197q302 -19 445 -244l-117 -80q-93 164 -328 186v-920q235 22 328 188l117 -82q-143 -225 -445 -244v-199h-171v209q-227 37 -358 208q-121 160 -121 380zM181 795q0 -155 74 -274q82 -134 235 -173v894 q-153 -37 -235 -171q-74 -119 -74 -276z" />
<glyph unicode="&#xa3;" d="M34 0v1175q0 192 128 311t328 119q155 0 267 -81t140 -228l-150 -34q-47 201 -257 201q-138 0 -211.5 -76t-73.5 -212v-302h480v-147h-480v-579h363q331 0 469 268l130 -72q-84 -179 -257 -267q-149 -76 -342 -76h-534z" />
<glyph unicode="&#xa5;" d="M4 497v149h484v41l-132 264h-352v147h277l-246 494h188l349 -726h1l349 726h186l-244 -494h275v-147h-350l-132 -264v-41h482v-149h-482v-497h-169v497h-484z" />
<glyph unicode="&#xa6;" d="M486 -229v933h171v-933h-171zM486 888v933h171v-933h-171z" />
<glyph unicode="&#xa7;" d="M26 218l160 41q76 -339 440 -339q177 0 260 104q58 76 58 175q0 186 -223 291q-207 86 -416 171q-223 123 -223 352q0 195 162 313q-162 117 -162 314q0 168 127 283q136 125 363 125q231 0 381 -130q143 -121 162 -306l-173 -29q-43 318 -370 318q-141 0 -233 -80 q-84 -74 -84 -179q0 -155 225 -251q210 -88 421 -175q225 -134 225 -376q0 -182 -141 -311q141 -121 141 -315q0 -184 -142 -313.5t-358 -129.5q-253 0 -416 132q-147 121 -184 315zM255 1017q0 -149 201 -242q197 -78 393 -157q95 79 95 209q0 119 -84 199q-65 63 -203 119 q-125 47 -247 93q-155 -73 -155 -221z" />
<glyph unicode="&#xa8;" d="M227 1365v227h229v-227h-229zM683 1365v227h227v-227h-227z" />
<glyph unicode="&#xa9;" horiz-adv-x="1370" d="M4 1136q0 283 200 483t483 200t483 -200t200 -483t-200 -483.5t-483 -200.5t-483 200.5t-200 483.5zM84 1136q0 -249 177 -426.5t426 -177.5t426 177.5t177 426.5t-177 426t-426 177t-426 -177t-177 -426zM248 1139q0 184 113 308q123 134 330 134q251 0 367 -181 l-131 -86q-67 123 -236 123q-132 0 -205 -95q-63 -84 -63 -203q0 -121 63 -204q73 -95 205 -95q169 0 236 123l131 -86q-115 -181 -367 -181q-207 0 -330 134q-114 123 -113 309z" />
<glyph unicode="&#xaa;" horiz-adv-x="1362" d="M225 1112q0 214 121 353q128 147 341 147q143 0 268 -96v74h136v-910h-136v376q-28 -145 -115 -263q-104 -138 -235 -138q-188 0 -290 138q-89 123 -90 319zM227 318v136h909v-136h-909zM361 1112q0 -136 52 -224q65 -104 192 -104q153 0 259 192q91 164 91 331v71 q-119 125 -268 124q-158 0 -248 -121q-78 -106 -78 -269z" />
<glyph unicode="&#xab;" d="M17 797l396 402l97 -97l-303 -305l303 -304l-97 -96zM471 797l398 402l95 -97l-301 -305l301 -304l-95 -96z" />
<glyph unicode="&#xac;" horiz-adv-x="1362" d="M0 776v136h1136v-683h-134v547h-1002z" />
<glyph unicode="&#xad;" d="M227 730v136h683v-136h-683z" />
<glyph unicode="&#xae;" horiz-adv-x="1370" d="M4 1136q0 283 200 483t483 200t483 -200t200 -483t-200 -483.5t-483 -200.5t-483 200.5t-200 483.5zM84 1136q0 -249 177 -426.5t426 -177.5t426 177.5t177 426.5t-177 426t-426 177t-426 -177t-177 -426zM404 726v825h326q119 0 208 -58q108 -73 108 -206 q0 -110 -76 -185q-69 -65 -158 -74l249 -302h-229l-212 296h-41v-296h-175zM579 1156h65q110 0 153 17q76 26 76 114t-76 115q-43 17 -153 17h-65v-263z" />
<glyph unicode="&#xaf;" d="M227 1456v138h683v-138h-683z" />
<glyph unicode="&#xb0;" d="M227 1367q0 188 134 321t322 133t321.5 -133t133.5 -321q0 -190 -133.5 -323.5t-321.5 -133.5t-322 133.5t-134 323.5zM341 1367q0 -141 100.5 -242t241.5 -101t242 101t101 242t-100.5 241.5t-242.5 100.5q-141 0 -241.5 -100.5t-100.5 -241.5z" />
<glyph unicode="&#xb1;" d="M0 0v136h1138v-136h-1138zM0 730v134h501v503h136v-503h501v-134h-501v-503h-136v503h-501z" />
<glyph unicode="&#xb2;" d="M37 1370q0 229 216 229q80 0 138 -41q67 -45 67 -123q0 -56 -34 -102q-17 -24 -76 -78q-45 -45 -139 -132h148v72h99v-164h-406v79q86 80 252 238q48 48 48 89q0 32 -29 52.5t-68 20.5q-114 0 -113 -140h-103z" />
<glyph unicode="&#xb3;" d="M26 1221l104 15q13 -123 123 -123q41 0 69 25.5t28 56.5q0 52 -32 67q-20 9 -83 10v98q106 0 106 67q0 71 -88 71q-114 0 -113 -123h-103q0 108 64 164q58 50 152 50q89 0 141.5 -46.5t52.5 -117.5q0 -73 -63 -109q74 -51 74 -131q0 -69 -57.5 -121t-147.5 -52 q-205 0 -227 199z" />
<glyph unicode="&#xb4;" d="M294 1467l494 350l80 -132l-527 -298z" />
<glyph unicode="&#xb5;" horiz-adv-x="1364" d="M58 -454v1593h171v-701q0 -303 248 -304q199 0 322 149q115 140 115 346v510h170v-1139h-170v287q-119 -315 -437 -315q-149 0 -248 67v-493h-171z" />
<glyph unicode="&#xb6;" d="M37 1138q0 454 611 454h464v-1592h-170v681h-285v-681h-169v691q-451 50 -451 447zM209 1138q0 -248 279 -295v589q-279 -47 -279 -294zM657 830h285v615h-285v-615z" />
<glyph unicode="&#xb7;" d="M456 438v221h224v-221h-224z" />
<glyph unicode="&#xb8;" d="M296 -313q246 0 246 261v52h141v-52q0 -179 -100 -287q-104 -115 -287 -115v141z" />
<glyph unicode="&#xb9;" d="M101 1037v89h89v291q-26 -13 -89 -13v98q52 0 70.5 20t18.5 72h108v-468h89v-89h-286z" />
<glyph unicode="&#xba;" horiz-adv-x="1362" d="M210 1136q0 201 123 335q132 145 358 145q223 0 355 -145q123 -134 123 -335q0 -199 -123 -334q-132 -145 -355 -145q-225 0 -358 145q-123 134 -123 334zM227 322v134h909v-134h-909zM346 1136q0 -149 82 -252q95 -117 263 -117t260 117q82 103 82 252q0 151 -82 253 q-93 117 -260 117q-168 0 -263 -117q-82 -102 -82 -253z" />
<glyph unicode="&#xbb;" d="M173 492l304 305l-304 303l97 97l397 -400l-397 -400zM629 492l302 305l-302 303l95 97l399 -400l-399 -400z" />
<glyph unicode="&#xbc;" d="M4 39l1022 1592l113 -76l-1022 -1590zM101 1037v89h89v291q-26 -13 -89 -13v98q52 0 70.5 20t18.5 72h108v-468h89v-89h-286zM706 151v74l242 334h111v-319h90v-89h-90v-60h90v-91h-285v91h89v60h-247zM836 240h117v160z" />
<glyph unicode="&#xbd;" d="M4 39l1022 1592l113 -76l-1022 -1590zM101 1037v89h89v291q-26 -13 -89 -13v98q52 0 70.5 20t18.5 72h108v-468h89v-89h-286zM732 339q0 229 214 229q82 0 139 -41q66 -47 66 -123q0 -56 -32 -102q-17 -24 -76 -79q-47 -45 -140 -132h149v73h97v-164h-404v78 q86 80 251 239q48 48 48 87q0 32 -28.5 52.5t-69.5 20.5q-112 0 -112 -138h-102z" />
<glyph unicode="&#xbe;" d="M4 39l1022 1592l113 -76l-1022 -1590zM26 1221l104 15q13 -123 123 -123q41 0 69 25.5t28 56.5q0 52 -32 67q-20 9 -83 10v98q106 0 106 67q0 71 -88 71q-114 0 -113 -123h-103q0 108 64 164q58 50 152 50q89 0 141.5 -46.5t52.5 -117.5q0 -73 -63 -109q74 -51 74 -131 q0 -69 -57.5 -121t-147.5 -52q-205 0 -227 199zM706 151v74l242 334h111v-319h90v-89h-90v-60h90v-91h-285v91h89v60h-247zM836 240h117v160z" />
<glyph unicode="&#xbf;" horiz-adv-x="1362" d="M253 367q0 155 123 288q114 106 229 214q123 130 123 276h179q0 -166 -125 -315q-115 -115 -231 -229q-125 -127 -125 -238q0 -244 272 -244q121 0 201 76q91 89 99 259l160 -41q-26 -233 -164 -346q-117 -95 -296 -95q-209 0 -327 107t-118 288zM685 1368v222h224v-222 h-224z" />
<glyph unicode="&#xc0;" d="M-74 0l532 1592h227l531 -1592h-181l-149 456h-631l-147 -456h-182zM270 1916l80 130l495 -348l-48 -82zM303 603h535l-266 819z" />
<glyph unicode="&#xc1;" d="M-74 0l532 1592h227l531 -1592h-181l-149 456h-631l-147 -456h-182zM294 1696l494 348l80 -130l-527 -300zM303 603h535l-266 819z" />
<glyph unicode="&#xc2;" d="M-74 0l532 1592h227l531 -1592h-181l-149 456h-631l-147 -456h-182zM209 1691l363 351l361 -350l-64 -80l-296 248l-301 -251zM303 603h535l-266 819z" />
<glyph unicode="&#xc3;" d="M-74 0l532 1592h227l531 -1592h-181l-149 456h-631l-147 -456h-182zM95 1763q112 190 300 190q117 0 208 -86q60 -54 131 -54q123 0 202 134l97 -57q-112 -192 -299 -192q-117 0 -209 86q-58 56 -130 55q-123 0 -201 -134zM303 603h535l-266 819z" />
<glyph unicode="&#xc4;" d="M-74 0l532 1592h227l531 -1592h-181l-149 456h-631l-147 -456h-182zM227 1819v229h229v-229h-229zM303 603h535l-266 819zM683 1819v229h227v-229h-227z" />
<glyph unicode="&#xc5;" d="M-74 0l510 1525q-141 78 -142 240q0 114 81 195t195 81q115 0 195 -81t80 -195q0 -160 -138 -240l509 -1525h-181l-149 456h-631l-147 -456h-182zM303 603h535l-266 819zM404 1765q0 -69 48.5 -117.5t117.5 -48.5t117 48.5t48 117.5t-48 117.5t-117 48.5t-117.5 -48.5 t-48.5 -117.5z" />
<glyph unicode="&#xc6;" d="M-80 0l486 1594h733v-147h-448v-559h339v-147h-339v-592h448v-149h-620v456h-283l-135 -456h-181zM281 603h238v806z" />
<glyph unicode="&#xc7;" d="M-22 799q0 404 177 622q162 203 433 203q294 0 399 -215v187h149v-525h-149q0 184 -125 299q-114 104 -274 105q-210 0 -325.5 -179t-115.5 -497t115.5 -498t325.5 -180q303 0 402 361l159 -61q-119 -387 -466 -441v-34q0 -177 -102.5 -288.5t-284.5 -111.5v141 q246 0 246 259v30q-253 19 -402 219q-162 218 -162 604z" />
<glyph unicode="&#xc8;" d="M56 0v1594h1024v-147h-855v-559h630v-149h-630v-590h855v-149h-1024zM270 1914l80 132l495 -350l-48 -80z" />
<glyph unicode="&#xc9;" d="M56 0v1594h1024v-147h-855v-559h630v-149h-630v-590h855v-149h-1024zM294 1696l494 348l80 -130l-527 -300z" />
<glyph unicode="&#xca;" d="M56 0v1594h1024v-147h-855v-559h630v-149h-630v-590h855v-149h-1024zM209 1691l363 351l361 -350l-64 -80l-296 248l-301 -251z" />
<glyph unicode="&#xcb;" d="M56 0v1594h1024v-147h-855v-559h630v-149h-630v-590h855v-149h-1024zM227 1819v229h229v-229h-229zM683 1819v229h227v-229h-227z" />
<glyph unicode="&#xcc;" d="M227 0v149h257v1298h-257v147h683v-147h-257v-1298h257v-149h-683zM270 1914l80 132l495 -350l-48 -80z" />
<glyph unicode="&#xcd;" d="M227 0v149h257v1298h-257v147h683v-147h-257v-1298h257v-149h-683zM294 1696l494 348l80 -130l-527 -300z" />
<glyph unicode="&#xce;" d="M209 1691l363 351l361 -350l-64 -80l-296 248l-301 -251zM227 0v149h257v1298h-257v147h683v-147h-257v-1298h257v-149h-683z" />
<glyph unicode="&#xcf;" d="M227 0v149h257v1298h-257v147h683v-147h-257v-1298h257v-149h-683zM227 1819v229h229v-229h-229zM683 1819v229h227v-229h-227z" />
<glyph unicode="&#xd0;" d="M-145 730v136h205v728h519q266 0 430 -188q183 -211 183 -609t-183 -609q-164 -188 -430 -188h-519v730h-205zM229 149h350q207 0 324 168.5t117 479.5t-117 480.5t-324 169.5h-350v-581h309v-136h-309v-581z" />
<glyph unicode="&#xd1;" d="M56 0v1594h238l615 -1287v1287h171v-1594h-211l-644 1348v-1348h-169zM95 1763q112 190 300 190q117 0 208 -86q60 -54 131 -54q123 0 202 134l97 -57q-112 -192 -299 -192q-117 0 -209 86q-58 56 -130 55q-123 0 -201 -134z" />
<glyph unicode="&#xd2;" d="M-43 797q0 404 179 624q162 201 434 201t435 -201q177 -220 177 -624t-177 -624q-164 -201 -435 -201q-272 0 -434 201q-179 220 -179 624zM128 797q0 -318 114 -495q117 -182 328 -183q212 0 327 183q114 177 114 495t-114.5 498t-326.5 180q-210 0 -326 -180t-116 -498 zM270 1914l80 132l495 -350l-48 -80z" />
<glyph unicode="&#xd3;" d="M-43 797q0 404 179 624q162 201 434 201t435 -201q177 -220 177 -624t-177 -624q-164 -201 -435 -201q-272 0 -434 201q-179 220 -179 624zM128 797q0 -318 114 -495q117 -182 328 -183q212 0 327 183q114 177 114 495t-114.5 498t-326.5 180q-210 0 -326 -180t-116 -498 zM294 1696l494 348l80 -130l-527 -300z" />
<glyph unicode="&#xd4;" d="M-43 797q0 404 179 624q162 201 434 201t435 -201q177 -220 177 -624t-177 -624q-164 -201 -435 -201q-272 0 -434 201q-179 220 -179 624zM128 797q0 -318 114 -495q117 -182 328 -183q212 0 327 183q114 177 114 495t-114.5 498t-326.5 180q-210 0 -326 -180t-116 -498 zM209 1691l363 351l361 -350l-64 -80l-296 248l-301 -251z" />
<glyph unicode="&#xd5;" d="M-43 797q0 404 179 624q162 201 434 201t435 -201q177 -220 177 -624t-177 -624q-164 -201 -435 -201q-272 0 -434 201q-179 220 -179 624zM95 1763q112 190 300 190q117 0 208 -86q60 -54 131 -54q123 0 202 134l97 -57q-112 -192 -299 -192q-117 0 -209 86 q-58 56 -130 55q-123 0 -201 -134zM128 797q0 -318 114 -495q117 -182 328 -183q212 0 327 183q114 177 114 495t-114.5 498t-326.5 180q-210 0 -326 -180t-116 -498z" />
<glyph unicode="&#xd6;" d="M-43 797q0 404 179 624q162 201 434 201t435 -201q177 -220 177 -624t-177 -624q-164 -201 -435 -201q-272 0 -434 201q-179 220 -179 624zM128 797q0 -318 114 -495q117 -182 328 -183q212 0 327 183q114 177 114 495t-114.5 498t-326.5 180q-210 0 -326 -180t-116 -498 zM227 1819v229h229v-229h-229zM683 1819v229h227v-229h-227z" />
<glyph unicode="&#xd7;" d="M119 441l354 354l-354 356l95 95l356 -354l353 354l97 -95l-355 -356l355 -354l-97 -95l-353 354l-356 -354z" />
<glyph unicode="&#xd8;" d="M-56 35v196l97 102q-84 194 -84 466q0 404 179 622q162 203 434 203q296 0 460 -239l165 175v-195l-97 -103q84 -194 84 -463q0 -404 -177 -624q-164 -203 -435 -203q-296 0 -460 238zM128 799q0 -179 43 -328l743 789q-117 214 -344 215q-210 0 -326 -179t-116 -497z M225 335q117 -214 345 -214q212 0 326.5 180t114.5 498q0 179 -43 326z" />
<glyph unicode="&#xd9;" d="M45 676v918h169v-918q0 -279 73 -408q82 -149 283 -149q203 0 285 149q71 128 70 408v918h172v-918q0 -704 -527 -704q-525 0 -525 704zM270 1914l80 132l495 -350l-48 -80z" />
<glyph unicode="&#xda;" d="M45 676v918h169v-918q0 -279 73 -408q82 -149 283 -149q203 0 285 149q71 128 70 408v918h172v-918q0 -704 -527 -704q-525 0 -525 704zM294 1696l494 348l80 -130l-527 -300z" />
<glyph unicode="&#xdb;" d="M45 676v918h169v-918q0 -279 73 -408q82 -149 283 -149q203 0 285 149q71 128 70 408v918h172v-918q0 -704 -527 -704q-525 0 -525 704zM209 1691l363 351l361 -350l-64 -80l-296 248l-301 -251z" />
<glyph unicode="&#xdc;" d="M45 676v918h169v-918q0 -279 73 -408q82 -149 283 -149q203 0 285 149q71 128 70 408v918h172v-918q0 -704 -527 -704q-525 0 -525 704zM227 1819v229h229v-229h-229zM683 1819v229h227v-229h-227z" />
<glyph unicode="&#xdd;" d="M-22 1447v149h454v-149h-136l276 -578h3l274 578h-134v149h452v-149h-130l-378 -758v-540h255v-147h-683v147h257v540l-378 758h-132zM294 1696l494 348l80 -130l-527 -300z" />
<glyph unicode="&#xde;" d="M48 0v1676h172v-339h294q611 0 611 -456t-611 -457h-294v-424h-172zM220 573h294q439 1 439 308t-439 307h-294v-615z" />
<glyph unicode="&#xdf;" d="M26 -231v1285q0 322 155 516q169 214 484 214q186 0 309 -107q132 -112 132 -296q0 -101 -63 -184l-116 -126q-61 -73 -61 -149q0 -74 82 -155q147 -141 152 -149q84 -104 84 -236q0 -182 -124.5 -297t-309.5 -115q-104 0 -184 34q-69 28 -158 100l95 129 q130 -119 247 -119q123 0 193 71.5t70 196.5q0 93 -82 177q-78 71 -155 143q-82 95 -82 220q0 108 62 188q58 61 115 123q63 69 64 148q0 125 -73 195t-197 70q-469 0 -468 -592v-1285h-171z" />
<glyph unicode="&#xe0;" d="M2 540q0 268 153 443q160 184 424 184q181 0 335 -121v93h171v-1139h-171v469q-32 -181 -143 -326q-130 -175 -294 -175q-235 0 -362 173q-114 155 -113 399zM173 540q0 -169 65 -279q80 -132 239 -133q192 0 325 241q112 205 112 415v89q-147 156 -335 157 q-197 0 -307 -151q-99 -134 -99 -339zM270 1685l80 132l495 -350l-48 -80z" />
<glyph unicode="&#xe1;" d="M2 540q0 268 153 443q160 184 424 184q181 0 335 -121v93h171v-1139h-171v469q-32 -181 -143 -326q-130 -175 -294 -175q-235 0 -362 173q-114 155 -113 399zM173 540q0 -169 65 -279q80 -132 239 -133q192 0 325 241q112 205 112 415v89q-147 156 -335 157 q-197 0 -307 -151q-99 -134 -99 -339zM294 1467l494 350l80 -132l-527 -298z" />
<glyph unicode="&#xe2;" d="M2 540q0 268 153 443q160 184 424 184q181 0 335 -121v93h171v-1139h-171v469q-32 -181 -143 -326q-130 -175 -294 -175q-235 0 -362 173q-114 155 -113 399zM173 540q0 -169 65 -279q80 -132 239 -133q192 0 325 241q112 205 112 415v89q-147 156 -335 157 q-197 0 -307 -151q-99 -134 -99 -339zM209 1467l363 354l361 -350l-64 -82l-296 249l-301 -251z" />
<glyph unicode="&#xe3;" d="M2 540q0 268 153 443q160 184 424 184q181 0 335 -121v93h171v-1139h-171v469q-32 -181 -143 -326q-130 -175 -294 -175q-235 0 -362 173q-114 155 -113 399zM95 1549q112 190 300 190q117 0 208 -86q60 -56 131 -56q123 0 202 136l97 -57q-112 -192 -299 -192 q-117 0 -209 86q-58 56 -130 55q-123 0 -201 -134zM173 540q0 -169 65 -279q80 -132 239 -133q192 0 325 241q112 205 112 415v89q-147 156 -335 157q-197 0 -307 -151q-99 -134 -99 -339z" />
<glyph unicode="&#xe4;" d="M2 540q0 268 153 443q160 184 424 184q181 0 335 -121v93h171v-1139h-171v469q-32 -181 -143 -326q-130 -175 -294 -175q-235 0 -362 173q-114 155 -113 399zM173 540q0 -169 65 -279q80 -132 239 -133q192 0 325 241q112 205 112 415v89q-147 156 -335 157 q-197 0 -307 -151q-99 -134 -99 -339zM227 1365v227h229v-227h-229zM683 1365v227h227v-227h-227z" />
<glyph unicode="&#xe5;" d="M2 540q0 268 153 443q160 184 424 184q181 0 335 -121v93h171v-1139h-171v469q-32 -181 -143 -326q-130 -175 -294 -175q-235 0 -362 173q-114 155 -113 399zM173 540q0 -169 65 -279q80 -132 239 -133q192 0 325 241q112 205 112 415v89q-147 156 -335 157 q-197 0 -307 -151q-99 -134 -99 -339zM294 1536q0 114 81 195t195 81q115 0 195 -81t80 -195q0 -115 -80 -195.5t-195 -80.5q-114 0 -195 80.5t-81 195.5zM404 1536q0 -69 48.5 -117.5t117.5 -48.5t117 48.5t48 117.5t-48 117.5t-117 48.5t-117.5 -48.5t-48.5 -117.5z" />
<glyph unicode="&#xe6;" horiz-adv-x="1362" d="M-48 540h1q0 627 349 627q112 0 173 -104v76h141v-154q80 182 214 182q199 0 280 -210q55 -151 55 -445h-523q0 -404 190 -404q140 0 173 171l138 -43q-84 -266 -298 -266q-143 0 -229 201v-169h-141v350q-39 -186 -69 -255q-56 -127 -155 -127q-147 0 -227 173 q-73 153 -72 397zM123 540q0 -410 138 -410q102 0 162 220q52 185 52 425v137q-69 117 -173 118q-179 0 -179 -490zM644 661h341q0 184 -21 255q-35 114 -147 114q-106 0 -145 -114q-28 -80 -28 -255z" />
<glyph unicode="&#xe7;" d="M11 568q0 253 142 417q156 182 435 182q127 0 233 -67q101 -63 125 -147v186h147v-454h-147q0 147 -119 251q-108 93 -239 94q-209 0 -316 -147q-91 -125 -91 -315q0 -186 102 -315q117 -147 326 -147q127 0 229 52t151 138l117 -82q-138 -216 -423 -242v-26 q0 -177 -102.5 -288.5t-284.5 -111.5v141q246 0 246 259v26q-251 22 -397 199q-134 162 -134 397z" />
<glyph unicode="&#xe8;" d="M-4 568q0 253 144 417q156 182 433 182q305 0 457 -210q121 -171 121 -447h-980q17 -169 118 -279q115 -125 307 -125q127 0 229 53t149 137l117 -82q-155 -246 -495 -246q-279 0 -445 183q-155 166 -155 417zM173 659h799q-54 371 -399 371q-181 0 -286 -114 q-91 -97 -114 -257zM270 1685l80 132l495 -350l-48 -80z" />
<glyph unicode="&#xe9;" d="M-4 568q0 253 144 417q156 182 433 182q305 0 457 -210q121 -171 121 -447h-980q17 -169 118 -279q115 -125 307 -125q127 0 229 53t149 137l117 -82q-155 -246 -495 -246q-279 0 -445 183q-155 166 -155 417zM173 659h799q-54 371 -399 371q-181 0 -286 -114 q-91 -97 -114 -257zM294 1467l494 350l80 -132l-527 -298z" />
<glyph unicode="&#xea;" d="M-4 568q0 253 144 417q156 182 433 182q305 0 457 -210q121 -171 121 -447h-980q17 -169 118 -279q115 -125 307 -125q127 0 229 53t149 137l117 -82q-155 -246 -495 -246q-279 0 -445 183q-155 166 -155 417zM173 659h799q-54 371 -399 371q-181 0 -286 -114 q-91 -97 -114 -257zM209 1467l363 354l361 -350l-64 -82l-296 249l-301 -251z" />
<glyph unicode="&#xeb;" d="M-4 568q0 253 144 417q156 182 433 182q305 0 457 -210q121 -171 121 -447h-980q17 -169 118 -279q115 -125 307 -125q127 0 229 53t149 137l117 -82q-155 -246 -495 -246q-279 0 -445 183q-155 166 -155 417zM173 659h799q-54 371 -399 371q-181 0 -286 -114 q-91 -97 -114 -257zM227 1365v227h229v-227h-229zM683 1365v227h227v-227h-227z" />
<glyph unicode="&#xec;" d="M227 0v149h257v841h-257v149h426v-990h257v-149h-683zM270 1685l80 132l495 -350l-48 -80z" />
<glyph unicode="&#xed;" d="M227 0v149h257v841h-257v149h426v-990h257v-149h-683zM294 1467l494 350l80 -132l-527 -298z" />
<glyph unicode="&#xee;" d="M209 1467l363 354l361 -350l-64 -82l-296 249l-301 -251zM227 0v149h257v841h-257v149h426v-990h257v-149h-683z" />
<glyph unicode="&#xef;" d="M227 0v149h257v841h-257v149h426v-990h257v-149h-683zM227 1365v227h229v-227h-229zM683 1365v227h227v-227h-227z" />
<glyph unicode="&#xf0;" d="M177 411q0 259 246 455q192 153 491 240q-82 119 -210 210l-222 -219l-95 96l198 198q-97 50 -213 87l54 144q143 -54 265 -127l178 181l97 -97l-160 -160q408 -304 408 -803q0 -309 -171 -488q-155 -158 -376 -158q-231 0 -365 132q-125 121 -125 309zM350 410 q0 -125 82 -205q86 -86 235 -86q160 0 271 134q116 141 116 363q0 188 -64 343q-249 -52 -411 -160q-229 -153 -229 -389z" />
<glyph unicode="&#xf1;" d="M61 0v1139h172v-286q119 315 435 314q421 0 421 -465v-702h-171v702q0 303 -250 303q-199 0 -320 -149q-115 -140 -115 -346v-510h-172zM95 1549q112 190 300 190q117 0 208 -86q60 -56 131 -56q123 0 202 136l97 -57q-112 -192 -299 -192q-117 0 -209 86q-58 56 -130 55 q-123 0 -201 -134z" />
<glyph unicode="&#xf2;" d="M-28 566q0 251 155 419q166 181 445 180q281 0 446 -180q153 -168 153 -419q0 -249 -153 -417q-166 -181 -446 -181q-279 0 -445 181q-155 168 -155 417zM143 566q0 -186 103 -315q117 -147 326 -147q210 0 327 147q103 129 103 315q0 188 -103 315q-117 147 -327 147 q-209 0 -326 -147q-102 -127 -103 -315zM270 1685l80 132l495 -350l-48 -80z" />
<glyph unicode="&#xf3;" d="M-28 566q0 251 155 419q166 181 445 180q281 0 446 -180q153 -168 153 -419q0 -249 -153 -417q-166 -181 -446 -181q-279 0 -445 181q-155 168 -155 417zM143 566q0 -186 103 -315q117 -147 326 -147q210 0 327 147q103 129 103 315q0 188 -103 315q-117 147 -327 147 q-209 0 -326 -147q-102 -127 -103 -315zM294 1467l494 350l80 -132l-527 -298z" />
<glyph unicode="&#xf4;" d="M-28 566q0 251 155 419q166 181 445 180q281 0 446 -180q153 -168 153 -419q0 -249 -153 -417q-166 -181 -446 -181q-279 0 -445 181q-155 168 -155 417zM143 566q0 -186 103 -315q117 -147 326 -147q210 0 327 147q103 129 103 315q0 188 -103 315q-117 147 -327 147 q-209 0 -326 -147q-102 -127 -103 -315zM209 1467l363 354l361 -350l-64 -82l-296 249l-301 -251z" />
<glyph unicode="&#xf5;" d="M-28 566q0 251 155 419q166 181 445 180q281 0 446 -180q153 -168 153 -419q0 -249 -153 -417q-166 -181 -446 -181q-279 0 -445 181q-155 168 -155 417zM95 1549q112 190 300 190q117 0 208 -86q60 -56 131 -56q123 0 202 136l97 -57q-112 -192 -299 -192 q-117 0 -209 86q-58 56 -130 55q-123 0 -201 -134zM143 566q0 -186 103 -315q117 -147 326 -147q210 0 327 147q103 129 103 315q0 188 -103 315q-117 147 -327 147q-209 0 -326 -147q-102 -127 -103 -315z" />
<glyph unicode="&#xf6;" d="M-28 566q0 251 155 419q166 181 445 180q281 0 446 -180q153 -168 153 -419q0 -249 -153 -417q-166 -181 -446 -181q-279 0 -445 181q-155 168 -155 417zM143 566q0 -186 103 -315q117 -147 326 -147q210 0 327 147q103 129 103 315q0 188 -103 315q-117 147 -327 147 q-209 0 -326 -147q-102 -127 -103 -315zM227 1365v227h229v-227h-229zM683 1365v227h227v-227h-227z" />
<glyph unicode="&#xf7;" horiz-adv-x="1362" d="M0 730v136h1136v-136h-1136zM454 229v222h226v-222h-226zM454 1139v222h226v-222h-226z" />
<glyph unicode="&#xf8;" horiz-adv-x="1362" d="M-54 -2v147l115 91q-89 147 -89 334q0 264 165.5 430.5t432.5 166.5q274 0 439 -175l184 147v-145l-115 -93q89 -147 89 -331q0 -266 -166.5 -433t-430.5 -167q-274 0 -440 175zM141 570q0 -123 51 -229l692 553q-115 136 -314 136q-197 0 -317 -134q-112 -127 -112 -326 zM253 244q117 -136 317 -136q197 0 314 134q114 129 114 328q0 121 -50 227z" />
<glyph unicode="&#xf9;" d="M60 438v701h171v-701q0 -305 249 -306q199 0 321 149q115 141 115 348v510h171v-1139h-171v287q-119 -315 -436 -315q-421 0 -420 466zM270 1685l80 132l495 -350l-48 -80z" />
<glyph unicode="&#xfa;" d="M60 438v701h171v-701q0 -305 249 -306q199 0 321 149q115 141 115 348v510h171v-1139h-171v287q-119 -315 -436 -315q-421 0 -420 466zM294 1467l494 350l80 -132l-527 -298z" />
<glyph unicode="&#xfb;" d="M60 438v701h171v-701q0 -305 249 -306q199 0 321 149q115 141 115 348v510h171v-1139h-171v287q-119 -315 -436 -315q-421 0 -420 466zM209 1467l363 354l361 -350l-64 -82l-296 249l-301 -251z" />
<glyph unicode="&#xfc;" d="M60 438v701h171v-701q0 -305 249 -306q199 0 321 149q115 141 115 348v510h171v-1139h-171v287q-119 -315 -436 -315q-421 0 -420 466zM227 1365v227h229v-227h-229zM683 1365v227h227v-227h-227z" />
<glyph unicode="&#xfd;" d="M-9 1138h199l383 -983l356 983h199l-543 -1397q-30 -73 -107 -126q-101 -69 -240 -69q-104 0 -227 41l37 171q134 -37 203 -37q114 0 151 91l65 156zM294 1467l494 350l80 -132l-527 -298z" />
<glyph unicode="&#xfe;" horiz-adv-x="1364" d="M54 -454v2130h171v-630q155 119 335 119q279 0 436 -180q142 -164 142 -417q0 -255 -142 -419q-156 -181 -436 -181q-181 0 -335 121v-543h-171zM225 263q149 -156 335 -157q209 0 317 147q91 123 91 315q0 190 -91 315q-108 147 -317 147q-186 0 -335 -157v-610z" />
<glyph unicode="&#xff;" d="M-9 1138h199l383 -983l356 983h199l-543 -1397q-30 -73 -107 -126q-101 -69 -240 -69q-104 0 -227 41l37 171q134 -37 203 -37q114 0 151 91l65 156zM227 1365v227h229v-227h-229zM683 1365v227h227v-227h-227z" />
<glyph unicode="&#x152;" horiz-adv-x="1362" d="M-20 797q0 823 357 823q181 0 249 -227v199h552v-147h-449v-559h339v-147h-339v-590h449v-149h-552v201q-69 -229 -249 -229q-357 0 -357 825zM151 797q0 -341 37 -495q43 -182 149 -183q106 0 147 183q35 152 35 495q0 341 -35 495q-41 181 -147 181t-149 -181 q-37 -156 -37 -495z" />
<glyph unicode="&#x153;" horiz-adv-x="1362" d="M-47 570q0 598 343 597q201 0 257 -236q54 236 264 236q209 0 291 -210q57 -147 57 -445h-523q0 -404 190 -404q140 0 173 171l138 -43q-84 -266 -311 -266q-216 0 -277 250q-54 -249 -259 -250q-343 0 -343 600zM123 570q0 -462 173 -462q171 0 171 462q0 460 -171 460 q-173 0 -173 -460zM644 661h341q0 184 -21 255q-35 114 -147 114q-106 0 -145 -114q-28 -80 -28 -255z" />
<glyph unicode="&#x178;" d="M-22 1447v149h454v-149h-136l276 -578h3l274 578h-134v149h452v-149h-130l-378 -758v-540h255v-147h-683v147h257v540l-378 758h-132zM227 1819v229h229v-229h-229zM683 1819v229h227v-229h-227z" />
<glyph unicode="&#x2c6;" d="M209 1467l363 354l361 -350l-64 -82l-296 249l-301 -251z" />
<glyph unicode="&#x2dc;" d="M95 1549q112 190 300 190q117 0 208 -86q60 -56 131 -56q123 0 202 136l97 -57q-112 -192 -299 -192q-117 0 -209 86q-58 56 -130 55q-123 0 -201 -134z" />
<glyph unicode="&#x2000;" horiz-adv-x="1024" />
<glyph unicode="&#x2001;" horiz-adv-x="2048" />
<glyph unicode="&#x2002;" horiz-adv-x="1024" />
<glyph unicode="&#x2003;" horiz-adv-x="2048" />
<glyph unicode="&#x2004;" horiz-adv-x="682" />
<glyph unicode="&#x2005;" horiz-adv-x="512" />
<glyph unicode="&#x2006;" horiz-adv-x="341" />
<glyph unicode="&#x2007;" horiz-adv-x="341" />
<glyph unicode="&#x2008;" horiz-adv-x="256" />
<glyph unicode="&#x2009;" horiz-adv-x="409" />
<glyph unicode="&#x200a;" horiz-adv-x="113" />
<glyph unicode="&#x2010;" d="M227 730v136h683v-136h-683z" />
<glyph unicode="&#x2011;" d="M227 730v136h683v-136h-683z" />
<glyph unicode="&#x2012;" d="M227 730v136h683v-136h-683z" />
<glyph unicode="&#x2013;" horiz-adv-x="1362" d="M0 730h1136v134h-1136v-134z" />
<glyph unicode="&#x2014;" horiz-adv-x="1362" d="M0 730v134h1363v-134h-1363z" />
<glyph unicode="&#x2018;" horiz-adv-x="1362" d="M525 909v264q0 179 99 294q106 121 288 121v-141q-246 0 -245 -274v-43h245v-221h-387z" />
<glyph unicode="&#x2019;" horiz-adv-x="1362" d="M456 1368v222h387v-264q0 -179 -98 -293q-106 -123 -287 -123v144q244 0 244 272v42h-246z" />
<glyph unicode="&#x201a;" d="M292 -233l229 684h226l-336 -684h-119z" />
<glyph unicode="&#x201c;" horiz-adv-x="1362" d="M67 909v264q0 179 103.5 297t283.5 118v-141q-244 0 -244 -274v-43h246v-221h-389zM748 909v264q0 179 103.5 297t284.5 118v-141q-246 0 -246 -274v-43h248v-221h-390z" />
<glyph unicode="&#x201d;" horiz-adv-x="1362" d="M2 1368v222h387v-264q0 -179 -99 -293q-106 -123 -286 -123v144q244 0 244 272v42h-246zM683 1368v222h389v-264q0 -179 -100 -293q-106 -123 -287 -123v144q244 0 244 272v42h-246z" />
<glyph unicode="&#x201e;" d="M67 -233l231 684h223l-335 -684h-119zM516 -233l231 684h225l-335 -684h-121z" />
<glyph unicode="&#x2022;" d="M227 910q0 188 134 321.5t322 133.5t321.5 -133.5t133.5 -321.5q0 -190 -133.5 -323t-321.5 -133t-322 133.5t-134 322.5z" />
<glyph unicode="&#x2026;" horiz-adv-x="1362" d="M0 2v221h225v-221h-225zM454 2v221h226v-221h-226zM909 2v221h225v-221h-225z" />
<glyph unicode="&#x202f;" horiz-adv-x="409" />
<glyph unicode="&#x2039;" d="M244 797l398 402l95 -97l-301 -305l301 -304l-95 -96z" />
<glyph unicode="&#x203a;" d="M400 492l304 305l-304 303l97 97l399 -400l-399 -400z" />
<glyph unicode="&#x205f;" horiz-adv-x="512" />
<glyph unicode="&#x20ac;" d="M0 546v135h190q-4 56 -4 116q0 58 4 113h-190v134h203q41 285 175 438q127 141 311 142q162 0 279 -110q125 -117 181 -337l-144 -62q-82 359 -316 360q-272 0 -335 -431h329v-134h-342q-2 -54 -2 -113q0 -60 2 -116h342v-135h-327q63 -424 333 -425q235 0 316 359 l144 -61q-56 -220 -181 -337q-117 -110 -279 -110q-184 0 -311 142q-134 151 -175 432h-203z" />
<glyph unicode="&#x2122;" horiz-adv-x="1368" d="M0 1685v136h568v-136h-216v-547h-136v547h-216zM685 1138v683h194l147 -399l149 399h193v-683h-135v480l-159 -406h-95l-158 406v-480h-136z" />
<glyph unicode="&#x25fc;" horiz-adv-x="1135" d="M0 0v1136h1136v-1136h-1136z" />
</font>
</defs>
</svg>
